<svg version="1.1" id="Layer_1" xmlns="http://www.w3.org/2000/svg" xmlns:xlink="http://www.w3.org/1999/xlink" x="0px" y="0px"
	 width="100%" viewBox="0 0 1024 1024" enable-background="new 0 0 1024 1024" xml:space="preserve">
<path fill="none" opacity="1.000000" stroke="currentColor" stroke-linecap="round" stroke-linejoin="round" stroke-width="8.000000"
	d="
M500.500000,439.000000 
	C504.164062,433.732391 510.167480,435.246063 515.025574,434.751465 
	C523.282166,433.910919 531.622131,433.283081 540.001404,433.403839 
	C552.805298,433.588379 565.399597,434.283173 577.006104,440.488586 
	C577.792786,440.909180 578.793518,441.622681 579.480957,441.431458 
	C589.343506,438.688080 598.574219,442.610748 607.367126,445.416412 
	C614.366272,447.649780 621.704590,448.573212 628.521179,451.449799 
	C650.791382,460.847778 669.722046,474.508606 685.700928,492.824738 
	C693.390503,501.639038 698.116333,511.637939 702.435364,522.026855 
	C713.723022,549.178467 707.930847,574.587036 691.505371,595.004333 
	C676.944641,613.103699 658.070312,625.357300 637.528259,635.556824 
	C616.104370,646.194214 593.427612,653.224854 570.475952,659.410706 
	C553.899963,663.878296 536.907776,666.578430 519.984619,669.407959 
	C510.904602,670.926147 501.624451,671.214172 492.508881,672.560181 
	C474.226898,675.259949 455.837067,674.815002 437.503143,674.370178 
	C413.123932,673.778625 389.199738,669.930176 366.518829,660.454956 
	C351.968536,654.376343 338.732483,646.384155 329.481354,633.012878 
	C319.310150,618.311768 316.103943,601.917603 318.086090,584.509827 
	C320.073914,567.052307 326.999573,551.326538 335.236969,535.859924 
	C340.296539,526.360046 347.743378,519.322449 354.569855,511.561432 
	C357.628418,508.084106 361.665894,506.599426 366.529907,508.420074 
	C368.685944,509.227112 371.166412,509.452271 373.500031,509.454346 
	C390.514099,509.469299 406.573853,514.210571 421.926178,520.675293 
	C445.082520,530.426208 466.403748,543.517700 485.458313,560.048035 
	C487.452637,561.778076 489.546967,562.411194 492.000000,562.500000 
"/>
<path fill="none" opacity="1.000000" stroke="currentColor" stroke-linecap="round" stroke-linejoin="round" stroke-width="6.000000"
	d="
M291.500000,663.500000 
	C291.806946,668.090149 295.361359,671.062012 297.661987,674.387939 
	C320.445221,707.324951 348.793243,734.621338 383.054596,755.410034 
	C408.297394,770.726624 435.554718,781.530396 464.531219,787.344360 
	C477.478363,789.942078 490.677032,791.291565 503.993591,791.705688 
	C513.360046,791.997009 522.725342,791.907959 531.986938,791.300842 
	C547.894409,790.258240 563.610962,787.416016 579.004333,783.015076 
	C628.013855,769.003174 669.312805,742.526245 703.945007,705.448669 
	C715.001465,693.611450 724.582214,680.533203 733.468872,666.979614 
	C734.117249,665.990723 735.025513,664.912048 734.500000,663.500000 
"/>
<path fill="none" opacity="1.000000" stroke="currentColor" stroke-linecap="round" stroke-linejoin="round" stroke-width="6.000000"
	d="
M653.500000,694.500000 
	C651.283264,699.428284 646.280823,701.310181 642.469971,704.463684 
	C629.437805,715.247498 614.691162,723.396912 599.427002,730.339539 
	C583.388489,737.634399 566.507751,742.532715 549.030823,745.671692 
	C532.055847,748.720459 514.994568,749.365601 498.014404,748.275574 
	C473.934174,746.729614 450.651672,740.923828 428.489868,731.022705 
	C408.300903,722.003052 389.689789,710.537170 373.000000,696.000000 
"/>
<path fill="none" opacity="1.000000" stroke="currentColor" stroke-linecap="round" stroke-linejoin="round" stroke-width="8.000000"
	d="
M270.500000,400.000000 
	C266.359802,410.035004 262.965942,420.298798 261.000214,431.000031 
	C259.598511,438.630890 258.456055,446.294098 257.393585,453.985291 
	C255.167603,470.098694 254.599289,486.302734 254.074356,502.502411 
	C253.566727,518.168518 254.182877,533.849182 255.064362,549.496399 
	C255.534988,557.850098 256.312286,566.220886 257.576508,574.488281 
	C259.940216,589.946350 261.628479,605.597412 268.445618,620.025696 
	C269.376892,621.996765 269.572693,624.315369 270.126892,626.544983 
	C277.361816,629.110046 279.429810,628.067322 283.553436,621.031311 
	C288.206879,613.091431 289.473602,604.197510 291.489899,595.497681 
	C294.121887,584.141174 295.089050,572.516235 296.333191,560.981995 
	C297.456604,550.567200 297.166687,540.000000 297.500031,529.500000 
"/>
<path fill="none" opacity="1.000000" stroke="currentColor" stroke-linecap="round" stroke-linejoin="round" stroke-width="8.000000"
	d="
M728.500000,496.500000 
	C729.285339,481.985199 729.658691,467.457672 731.417419,452.989960 
	C733.233521,438.050323 735.037964,423.162689 740.502747,409.001068 
	C741.148987,407.326508 741.656189,405.566498 742.531555,404.017853 
	C745.807251,398.222992 748.573303,397.162292 755.029785,399.008514 
	C757.197205,406.436554 760.967896,413.250275 762.670288,420.962402 
	C765.159363,432.238770 767.128601,443.531097 768.618530,454.984589 
	C771.148499,474.433319 771.959656,493.941467 771.958374,513.500000 
	C771.957092,533.058411 771.186768,552.566284 768.614136,572.015076 
	C766.758911,586.040283 764.589233,599.940613 760.501648,613.500488 
	C759.176941,617.894958 756.349915,621.768555 756.000366,626.500122 
	C748.470886,629.169373 746.447510,628.099548 742.438354,621.034973 
	C737.033081,611.510376 735.363281,600.913025 733.645691,590.476013 
	C730.328552,570.319214 728.759216,549.948669 728.500000,529.500000 
"/>
<path fill="none" opacity="1.000000" stroke="currentColor" stroke-linecap="round" stroke-linejoin="round" stroke-width="6.000000"
	d="
M507.500000,233.500000 
	C500.271606,241.489197 496.535583,251.119049 494.516388,261.503174 
	C491.336884,277.854034 497.118317,292.074371 505.554504,305.465668 
	C511.741669,315.286957 518.971558,324.430603 524.043884,334.978912 
	C528.857239,344.988708 531.534058,355.547516 530.321777,366.480225 
	C529.022095,378.200073 525.095947,389.270111 518.058228,399.041931 
	C516.645813,401.003052 514.507080,402.708923 514.500000,405.500000 
"/>
<path fill="none" opacity="1.000000" stroke="currentColor" stroke-linecap="round" stroke-linejoin="round" stroke-width="8.000000"
	d="
M756.000000,399.250000 
	C761.350037,396.853760 766.999268,398.138977 772.500854,398.063995 
	C786.569641,397.872192 788.537598,399.265076 793.455322,412.516602 
	C795.311035,417.517273 795.521912,423.537994 797.915833,427.764465 
	C801.365173,433.854370 800.027588,440.043732 801.282227,446.045532 
	C803.407837,456.213257 804.602356,466.635651 805.340515,477.011353 
	C805.801270,483.487793 806.376587,490.003662 806.434265,496.500580 
	C806.589600,514.004578 807.110474,531.548340 805.396606,548.989868 
	C804.196716,561.199646 802.352783,573.362427 800.738586,585.531677 
	C799.205750,597.087158 795.472351,607.807922 791.364075,618.447510 
	C788.742004,625.238037 783.508667,629.118225 775.492371,628.057922 
	C769.200623,627.225708 762.650635,629.314270 756.500000,626.500000 
"/>
<path fill="none" opacity="1.000000" stroke="currentColor" stroke-linecap="round" stroke-linejoin="round" stroke-width="8.000000"
	d="
M297.500000,496.500000 
	C297.338379,481.776184 296.267975,467.127350 294.579895,452.490784 
	C292.976349,438.587067 290.934265,424.836884 286.584412,411.472534 
	C285.543640,408.274811 283.993835,405.399139 282.432007,402.537109 
	C280.057770,398.186432 277.112640,396.867310 272.559479,398.651794 
	C270.060669,399.631134 268.488861,398.085846 266.499084,398.049561 
	C259.501434,397.921936 252.491150,397.787201 245.503235,398.077850 
	C241.137695,398.259399 238.629120,401.203888 236.389740,404.933807 
	C232.430786,411.527832 231.162201,419.004333 228.392838,425.957306 
	C226.055389,431.825806 225.376038,437.962128 224.630630,444.016083 
	C222.953323,457.638550 221.031021,471.230133 220.348434,484.992493 
	C219.711472,497.834686 219.212784,510.668274 219.581833,523.497620 
	C220.043655,539.551697 221.086014,555.560425 223.218857,571.537537 
	C224.113602,578.240051 227.278809,584.963318 225.000000,592.000000 
	C229.336319,597.781006 229.147980,605.174255 231.945892,611.523865 
	C233.664139,615.423218 234.997696,619.444275 237.433884,623.044739 
	C239.458481,626.036865 242.229340,628.000305 245.494781,627.869690 
	C253.497040,627.549377 261.662323,629.597168 269.500000,626.500000 
"/>
<path fill="none" opacity="1.000000" stroke="currentColor" stroke-linecap="round" stroke-linejoin="round" stroke-width="6.000000"
	d="
M687.500000,558.500000 
	C686.833374,558.833374 685.711487,559.030945 685.565796,559.519592 
	C680.143616,577.705994 666.776855,589.253967 651.976440,599.465820 
	C627.797363,616.148499 600.508667,625.713562 572.486633,633.451538 
	C567.234741,634.901733 562.003723,636.612366 556.500000,637.000000 
"/>
<path fill="none" opacity="1.000000" stroke="currentColor" stroke-linecap="round" stroke-linejoin="round" stroke-width="6.000000"
	d="
M594.500000,267.500000 
	C621.212769,275.210846 645.454285,287.781586 668.052612,303.926331 
	C691.244995,320.495483 711.222229,340.111115 727.500000,363.500000 
"/>
<path fill="none" opacity="1.000000" stroke="currentColor" stroke-linecap="round" stroke-linejoin="round" stroke-width="6.000000"
	d="
M429.500000,268.000000 
	C421.474121,269.861389 414.049683,273.342926 406.495667,276.489624 
	C381.258392,287.002594 358.639008,301.752625 338.064178,319.574066 
	C323.913025,331.831482 311.555420,345.861023 300.495117,360.996429 
	C299.866058,361.857239 299.166656,362.666656 298.500000,363.500000 
"/>
<path fill="none" opacity="1.000000" stroke="currentColor" stroke-linecap="round" stroke-linejoin="round" stroke-width="6.000000"
	d="
M586.500000,309.500000 
	C586.341797,311.406097 587.723633,311.116821 588.973450,311.572784 
	C618.920105,322.498566 645.695862,338.672119 668.428894,361.072144 
	C681.264465,373.719604 692.353699,387.893982 701.500000,403.500000 
"/>
<path fill="none" opacity="1.000000" stroke="currentColor" stroke-linecap="round" stroke-linejoin="round" stroke-width="8.000000"
	d="
M390.500000,484.000000 
	C396.937042,487.305298 404.207886,486.771820 411.034912,488.348846 
	C428.344299,492.347290 443.621460,500.107117 457.514526,510.981415 
	C472.088409,522.388611 482.574036,537.054321 491.475586,553.013611 
	C492.161469,554.243286 493.112732,555.776001 492.897583,556.981750 
	C491.758728,563.363464 495.719757,567.512085 499.000000,572.000000 
"/>
<path fill="none" opacity="1.000000" stroke="currentColor" stroke-linecap="round" stroke-linejoin="round" stroke-width="6.000000"
	d="
M551.000000,269.000000 
	C546.430603,276.887543 544.075562,285.194824 544.357971,294.504303 
	C544.643066,303.903595 548.550781,311.720825 553.005615,319.496796 
	C557.721985,327.729401 563.592224,335.364380 565.528931,344.994171 
	C567.284241,353.722473 566.822998,362.063385 563.705322,370.575226 
	C562.064209,375.055847 558.226440,378.486816 558.000000,383.500000 
"/>
<path fill="none" opacity="1.000000" stroke="currentColor" stroke-linecap="round" stroke-linejoin="round" stroke-width="8.000000"
	d="
M459.000000,452.500000 
	C463.187042,457.453400 469.612030,457.476410 475.053497,459.344147 
	C493.709015,465.747498 510.020355,475.973358 524.973511,488.531555 
	C538.974060,500.289703 551.482483,513.478516 562.046936,528.466919 
	C563.438477,530.441101 565.424927,532.029297 568.000000,532.500000 
"/>
<path fill="none" opacity="1.000000" stroke="currentColor" stroke-linecap="round" stroke-linejoin="round" stroke-width="6.000000"
	d="
M427.500000,315.500000 
	C415.268494,319.370300 404.242096,325.767426 393.553223,332.583466 
	C366.945465,349.550507 344.961639,371.278381 327.899200,397.935486 
	C326.726410,399.767792 326.137634,401.966370 324.500000,403.500000 
"/>
<path fill="none" opacity="1.000000" stroke="currentColor" stroke-linecap="round" stroke-linejoin="round" stroke-width="6.000000"
	d="
M465.500000,280.500000 
	C461.191193,287.923828 458.191528,295.929962 458.659149,304.491302 
	C459.148987,313.458740 462.753693,321.560608 467.929199,329.048920 
	C473.491119,337.096222 479.622772,344.704437 482.679413,354.443695 
	C486.629303,367.029266 483.325775,378.238190 478.443665,389.475525 
	C478.216003,389.999603 477.166656,390.166656 476.500000,390.500000 
"/>
<path fill="none" opacity="1.000000" stroke="currentColor" stroke-linecap="round" stroke-linejoin="round" stroke-width="8.000000"
	d="
M337.000000,529.250000 
	C335.085693,528.421997 333.149200,527.939392 330.999603,527.960571 
	C321.667175,528.052551 312.333344,528.000000 303.000000,528.000000 
	C295.166656,528.000000 287.328094,527.835327 279.502716,528.084900 
	C276.570282,528.178406 275.024902,526.819946 274.571106,524.486206 
	C273.087524,516.856323 272.851868,509.147675 274.545898,501.510193 
	C275.147980,498.795685 277.042603,497.904114 280.000458,497.921234 
	C304.166290,498.061127 328.333374,497.979401 352.499969,498.020905 
	C356.378448,498.027557 360.301697,496.599274 364.137878,499.304504 
	C365.238129,500.080383 368.365845,499.018219 369.936188,497.909637 
	C376.471710,493.296021 382.367920,487.786285 389.500000,484.000000 
	C394.136566,474.066193 404.324646,470.836609 412.635010,465.719269 
	C422.418701,459.694824 432.958832,454.671143 444.505188,452.527985 
	C445.632996,452.318634 446.833466,452.510834 447.999969,452.498138 
	C453.100525,452.442596 457.787872,452.382568 462.679413,449.283142 
	C468.059082,445.874420 474.833771,444.667938 480.999817,442.499481 
	C483.834259,441.502655 486.618683,440.322479 489.511078,439.540985 
	C494.014923,438.324066 498.186798,437.810181 502.109406,441.894928 
	C506.122009,446.073395 512.103333,447.477142 517.098450,450.327423 
	C542.708130,464.940674 558.461060,487.144348 567.263428,514.575928 
	C568.970825,519.896790 571.812439,525.911255 568.601318,532.052979 
	C568.193848,532.832336 569.005371,534.412109 569.529663,535.485535 
	C571.234131,538.974915 572.567139,542.515076 572.000000,546.500000 
"/>
<path fill="none" opacity="1.000000" stroke="currentColor" stroke-linecap="round" stroke-linejoin="round" stroke-width="8.000000"
	d="
M224.500000,433.500000 
	C218.166672,432.662476 211.822754,432.680420 205.503525,433.526306 
	C200.902771,434.142181 199.118073,437.953766 197.565689,441.528534 
	C194.807770,447.879303 193.572388,454.697266 192.530197,461.504608 
	C190.957657,471.776031 190.508896,482.201416 189.205002,492.462524 
	C187.714294,504.193970 188.445953,515.893860 188.464722,527.499268 
	C188.478760,536.177490 189.903534,545.205688 191.280121,554.034302 
	C192.531372,562.059082 193.655533,570.078552 195.384186,578.025208 
	C195.711609,579.530273 196.148041,581.276062 196.679932,582.416077 
	C200.235611,590.037109 200.730728,593.282776 211.999878,592.995483 
	C216.335022,592.885010 220.694336,593.386169 225.000000,592.500000 
"/>
<path fill="none" opacity="1.000000" stroke="currentColor" stroke-linecap="round" stroke-linejoin="round" stroke-width="8.000000"
	d="
M801.500000,592.000000 
	C806.920898,593.638123 812.492371,592.958252 817.999939,592.949219 
	C822.473267,592.941895 825.407654,590.453491 827.553589,586.529297 
	C831.074707,580.090820 832.250916,572.957092 833.334839,565.974365 
	C834.924133,555.735535 835.688171,545.341614 836.784424,535.030212 
	C837.943604,524.126587 837.645630,513.297668 837.319580,502.505463 
	C836.728882,482.954346 835.422668,463.373047 829.469727,444.509552 
	C827.002441,436.691254 824.580811,432.248322 813.999084,432.987122 
	C809.839722,433.277527 805.633301,432.499695 801.500000,433.500000 
"/>
<path fill="none" opacity="1.000000" stroke="currentColor" stroke-linecap="round" stroke-linejoin="round" stroke-width="6.000000"
	d="
M345.000000,616.500000 
	C344.559082,620.081055 347.449890,621.728577 349.556915,623.429504 
	C362.925476,634.221497 378.413055,640.545837 394.993317,644.527832 
	C403.241913,646.508911 411.588379,647.793823 420.000000,648.750000 
"/>
<path fill="none" opacity="1.000000" stroke="currentColor" stroke-linecap="round" stroke-linejoin="round" stroke-width="9.000000"
	d="
M693.000000,499.250000 
	C694.637085,498.715088 696.182129,498.037811 697.997864,497.954071 
	C708.161377,497.485291 718.326355,498.042023 728.525940,497.438904 
	C734.456543,497.088226 740.835876,497.754700 747.002441,497.890442 
	C749.557312,497.946655 751.029297,499.411133 751.374390,501.026825 
	C753.070312,508.967743 753.072693,517.032410 751.394165,524.977661 
	C750.964172,527.012634 749.158691,528.136536 746.498352,528.087341 
	C735.335510,527.880493 724.166687,527.993103 713.000000,528.006226 
	C710.952087,528.008606 708.832397,527.661072 707.000000,529.000000 
"/>
<path fill="none" opacity="1.000000" stroke="currentColor" stroke-linecap="round" stroke-linejoin="round" stroke-width="8.000000"
	d="
M579.500000,442.000000 
	C580.285706,445.156464 582.498657,447.132599 584.982056,449.023529 
	C602.784668,462.578522 616.987976,479.110962 626.530579,499.485687 
	C627.128540,500.762573 627.910583,502.295227 629.042725,502.922943 
	C635.124084,506.294708 634.896118,512.426270 636.000000,518.000000 
"/>
<path fill="none" opacity="1.000000" stroke="currentColor" stroke-linecap="round" stroke-linejoin="round" stroke-width="9.000000"
	d="
M187.750000,498.000000 
	C183.666672,498.000000 179.565887,498.230377 175.505829,497.922943 
	C172.560257,497.699921 171.032166,499.180054 170.569763,501.513824 
	C169.058075,509.143646 168.794983,516.855591 170.557953,524.486633 
	C171.096466,526.817627 172.560257,528.300110 175.505829,528.077026 
	C179.565872,527.769592 183.666672,528.000000 187.750000,528.000000 
"/>
<path fill="none" opacity="1.000000" stroke="currentColor" stroke-linecap="round" stroke-linejoin="round" stroke-width="9.000000"
	d="
M839.000000,528.000000 
	C842.166687,528.000000 845.333313,528.000000 848.500000,528.000000 
	C854.213684,528.000000 855.904663,527.112427 856.358582,521.488586 
	C856.893799,514.857361 857.367065,508.072906 855.461548,501.511169 
	C854.789490,499.196808 853.439941,497.695068 850.494080,497.923492 
	C846.517944,498.231720 842.500000,498.000000 838.500000,498.000000 
"/>
<path fill="none" opacity="1.000000" stroke="currentColor" stroke-linecap="round" stroke-linejoin="round" stroke-width="8.000000"
	d="
M617.000000,450.000000 
	C617.082703,453.421844 619.099121,455.917664 620.989441,458.507690 
	C629.797424,470.575836 634.742432,484.019318 635.570740,498.996094 
	C635.706665,501.453339 635.032837,503.456299 634.000000,505.500000 
"/>
<path fill="none" opacity="1.000000" stroke="currentColor" stroke-linecap="round" stroke-linejoin="round" stroke-width="6.000000"
	d="
M701.500000,638.000000 
	C694.734863,650.786804 685.658813,661.923523 676.491394,672.992859 
	C675.735779,673.905273 674.950317,674.900635 673.500000,674.500000 
"/>
<path fill="none" opacity="1.000000" stroke="currentColor" stroke-linecap="round" stroke-linejoin="round" stroke-width="6.000000"
	d="
M441.000000,650.000000 
	C449.666656,650.980835 458.333344,650.608582 467.000000,650.000000 
"/>
</svg>